<?xml version="1.0" standalone="no"?><!DOCTYPE svg PUBLIC "-//W3C//DTD SVG 1.1//EN" "http://www.w3.org/Graphics/SVG/1.1/DTD/svg11.dtd"><svg t="1762265467587" class="icon" viewBox="0 0 1028 1024" version="1.1" xmlns="http://www.w3.org/2000/svg" p-id="21272" xmlns:xlink="http://www.w3.org/1999/xlink" width="200.78125" height="200"><path d="M809.562353 698.194322V111.368031C809.562353 51.400784 762.445302 0 698.194322 0H111.368031C51.400784 0 0 47.117051 0 111.368031v586.826291C0 758.161569 47.117051 809.562353 111.368031 809.562353h586.826291c59.967247 0 111.368031-51.400784 111.368031-111.368031z m-736.74491 0V111.368031C72.817443 89.951373 89.951373 77.101176 107.085302 77.101176H693.910588c21.416659 0 34.266855 17.133929 34.266855 34.266855v586.826291c0 21.416659-17.132925 34.266855-34.266855 34.266854H111.368031c-21.416659 0-38.550588-12.850196-38.550588-34.266854zM916.647655 218.453333h-38.550588c-21.417663 0-38.550588 17.133929-38.550589 38.550589s17.132925 38.550588 38.550589 38.550588h38.550588c21.416659 0 34.266855 17.133929 34.266855 34.266855v586.82629c0 21.416659-17.133929 34.266855-34.266855 34.266855H329.821365c-21.416659 0-34.266855-17.133929-34.266855-38.550588v-38.550589c0-21.416659-17.133929-38.550588-38.550588-38.550588s-38.550588 17.133929-38.550589 38.550588v38.550589c0 59.967247 47.117051 111.368031 111.368032 111.368031h586.82629C976.614902 1023.731953 1028.015686 976.614902 1028.015686 912.363922V329.821365C1028.015686 269.854118 980.898635 218.453333 916.647655 218.453333z" fill="#5ebdf1" p-id="21273"></path></svg>